<svg xmlns="http://www.w3.org/2000/svg" xmlns:xlink="http://www.w3.org/1999/xlink" viewBox="0 0 299.1 400.35"><defs><style>.cls-1,.cls-10,.cls-2{fill:none;}.cls-10,.cls-2{opacity:0.46;}.cls-3{clip-path:url(#clip-path);}.cls-12,.cls-4{fill:#fff;}.cls-5{opacity:0.3;}.cls-6{fill:#0b8ea3;}.cls-7{opacity:0.4;}.cls-8{fill:#e78025;opacity:0.8;}.cls-9{clip-path:url(#clip-path-2);}.cls-10{stroke:#1693ae;stroke-linecap:round;stroke-miterlimit:10;stroke-width:2px;}.cls-11{fill:#d42028;}.cls-12,.cls-21{fill-rule:evenodd;}.cls-13{font-size:20px;fill:#0c8ea3;font-family:AMX-Black, AMX;font-weight:800;}.cls-14{letter-spacing:-0.02em;}.cls-15{font-size:18px;font-family:AMX-Medium, AMX;font-weight:500;fill:#000;}.cls-16{letter-spacing:-0.02em;}.cls-17{letter-spacing:-0.02em;}.cls-18{letter-spacing:-0.01em;}.cls-19{letter-spacing:-0.01em;}.cls-20{letter-spacing:-0.06em;}.cls-21{fill:#ea8023;}</style><clipPath id="clip-path" transform="translate(4.18 28.76)"><rect class="cls-1" width="290" height="350"/></clipPath><clipPath id="clip-path-2" transform="translate(4.18 28.76)"><path id="SVGID" class="cls-2" d="M192.63,219.79,82.88,178.09a20.76,20.76,0,0,1-10.47-30l48.45-81.57a20.75,20.75,0,0,1,25.22-8.81l79.24,30.11a20.78,20.78,0,0,1,13,23.34L220.4,204.31A20.77,20.77,0,0,1,192.63,219.79Z"/></clipPath></defs><g id="Capa_2" data-name="Capa 2"><g id="Capa_1-2" data-name="Capa 1"><g class="cls-3"><rect class="cls-4" x="4.18" y="28.76" width="290" height="350"/><g class="cls-5"><path class="cls-6" d="M36.67,325.29a57.4,57.4,0,0,1,16.92,40.85c0,1.83-.09,3.65-.26,5.45H51.2a54.49,54.49,0,0,0,.27-5.45A55.71,55.71,0,0,0-4.18,310.49v-2.12A57.4,57.4,0,0,1,36.67,325.29Z" transform="translate(4.18 28.76)"/></g><g class="cls-5"><path class="cls-6" d="M30.6,366.14a35,35,0,0,1-.43,5.45H28.88a33.69,33.69,0,0,0,.44-5.45,33.53,33.53,0,0,0-33.5-33.5v-1.28A34.82,34.82,0,0,1,30.6,366.14Z" transform="translate(4.18 28.76)"/></g><g class="cls-5"><path class="cls-6" d="M251.91,25.73a52.15,52.15,0,0,1-15.39-37.15c0-1.67.07-3.32.23-5h1.94c-.16,1.63-.24,3.29-.24,5a50.66,50.66,0,0,0,50.61,50.61v1.93A52.15,52.15,0,0,1,251.91,25.73Z" transform="translate(4.18 28.76)"/></g><g class="cls-5"><path class="cls-6" d="M257.43-11.42a31.31,31.31,0,0,1,.39-5H259a30.09,30.09,0,0,0-.4,5,30.5,30.5,0,0,0,30.47,30.47v1.16A31.66,31.66,0,0,1,257.43-11.42Z" transform="translate(4.18 28.76)"/></g><g class="cls-7"><circle class="cls-6" cx="52.22" cy="1.98" r="1.98"/><circle class="cls-6" cx="44.85" cy="1.98" r="1.98"/><circle class="cls-6" cx="37.49" cy="1.98" r="1.98"/><circle class="cls-6" cx="30.12" cy="1.98" r="1.98"/><circle class="cls-6" cx="48.53" cy="7.78" r="1.98"/><circle class="cls-6" cx="41.17" cy="7.78" r="1.98"/><circle class="cls-6" cx="33.8" cy="7.78" r="1.98"/><path class="cls-6" d="M20.28-21a2,2,0,0,0,2,2,2,2,0,0,0,2-2,2,2,0,0,0-2-2A2,2,0,0,0,20.28-21Z" transform="translate(4.18 28.76)"/><path class="cls-6" d="M46.06-15.71a2,2,0,0,0,2,2,2,2,0,0,0,2-2,2,2,0,0,0-2-2A2,2,0,0,0,46.06-15.71Z" transform="translate(4.18 28.76)"/><path class="cls-6" d="M38.7-15.71a2,2,0,0,0,2,2,2,2,0,0,0,2-2,2,2,0,0,0-2-2A2,2,0,0,0,38.7-15.71Z" transform="translate(4.18 28.76)"/><path class="cls-6" d="M31.33-15.71a2,2,0,0,0,2,2,2,2,0,0,0,2-2,2,2,0,0,0-2-2A2,2,0,0,0,31.33-15.71Z" transform="translate(4.18 28.76)"/><path class="cls-6" d="M24-15.71a2,2,0,0,0,2,2,2,2,0,0,0,2-2,2,2,0,0,0-2-2A2,2,0,0,0,24-15.71Z" transform="translate(4.18 28.76)"/><circle class="cls-6" cx="48.53" cy="18.86" r="1.98"/><circle class="cls-6" cx="41.17" cy="18.86" r="1.98"/><circle class="cls-6" cx="33.8" cy="18.86" r="1.98"/><path class="cls-6" d="M20.28-9.9a2,2,0,0,0,2,2,2,2,0,0,0,2-2,2,2,0,0,0-2-2A2,2,0,0,0,20.28-9.9Z" transform="translate(4.18 28.76)"/><circle class="cls-6" cx="52.22" cy="24.13" r="1.98"/><circle class="cls-6" cx="44.85" cy="24.13" r="1.98"/><circle class="cls-6" cx="37.49" cy="24.13" r="1.98"/><circle class="cls-6" cx="30.12" cy="24.13" r="1.98"/><path class="cls-6" d="M42.38,1.18a2,2,0,1,0,2-2A2,2,0,0,0,42.38,1.18Z" transform="translate(4.18 28.76)"/><path class="cls-6" d="M35,1.18a2,2,0,1,0,2-2A2,2,0,0,0,35,1.18Z" transform="translate(4.18 28.76)"/><path class="cls-6" d="M27.65,1.18a2,2,0,1,0,2-2A2,2,0,0,0,27.65,1.18Z" transform="translate(4.18 28.76)"/><path class="cls-6" d="M20.28,1.18a2,2,0,1,0,2-2A2,2,0,0,0,20.28,1.18Z" transform="translate(4.18 28.76)"/><circle class="cls-6" cx="52.22" cy="35.21" r="1.98"/><circle class="cls-6" cx="44.85" cy="35.21" r="1.98"/><circle class="cls-6" cx="37.49" cy="35.21" r="1.98"/><circle class="cls-6" cx="30.12" cy="35.21" r="1.98"/><circle class="cls-6" cx="48.53" cy="41.02" r="1.98"/><circle class="cls-6" cx="41.17" cy="41.02" r="1.98"/><circle class="cls-6" cx="33.8" cy="41.02" r="1.98"/><path class="cls-6" d="M20.28,12.26a2,2,0,1,0,2-2A2,2,0,0,0,20.28,12.26Z" transform="translate(4.18 28.76)"/><circle class="cls-6" cx="52.22" cy="46.29" r="1.98"/><circle class="cls-6" cx="44.85" cy="46.29" r="1.98"/><circle class="cls-6" cx="37.49" cy="46.29" r="1.98"/><circle class="cls-6" cx="30.12" cy="46.29" r="1.98"/><circle class="cls-6" cx="48.53" cy="52.1" r="1.98"/><circle class="cls-6" cx="41.17" cy="52.1" r="1.98"/><circle class="cls-6" cx="33.8" cy="52.1" r="1.98"/><path class="cls-6" d="M20.28,23.34a2,2,0,1,0,2-2A2,2,0,0,0,20.28,23.34Z" transform="translate(4.18 28.76)"/></g><g class="cls-7"><path class="cls-6" d="M213.34,362.53a2,2,0,1,0,2,2A2,2,0,0,0,213.34,362.53Z" transform="translate(4.18 28.76)"/><circle class="cls-6" cx="217.52" cy="385.9" r="1.98"/><circle class="cls-6" cx="217.52" cy="378.53" r="1.98"/><circle class="cls-6" cx="217.52" cy="371.17" r="1.98"/><path class="cls-6" d="M207.54,358.84a2,2,0,1,0,2,2A2,2,0,0,0,207.54,358.84Z" transform="translate(4.18 28.76)"/><circle class="cls-6" cx="211.71" cy="382.21" r="1.98"/><circle class="cls-6" cx="211.71" cy="374.85" r="1.98"/><path class="cls-6" d="M207.54,336.75a2,2,0,1,0,2,2A2,2,0,0,0,207.54,336.75Z" transform="translate(4.18 28.76)"/><path class="cls-6" d="M202.27,362.53a2,2,0,1,0,2,2A2,2,0,0,0,202.27,362.53Z" transform="translate(4.18 28.76)"/><circle class="cls-6" cx="206.44" cy="385.9" r="1.98"/><circle class="cls-6" cx="206.44" cy="378.53" r="1.98"/><circle class="cls-6" cx="206.44" cy="371.17" r="1.98"/><circle class="cls-6" cx="200.63" cy="389.58" r="1.98"/><circle class="cls-6" cx="200.63" cy="382.21" r="1.98"/><circle class="cls-6" cx="200.63" cy="374.85" r="1.98"/><path class="cls-6" d="M196.46,336.75a2,2,0,1,0,2,2A2,2,0,0,0,196.46,336.75Z" transform="translate(4.18 28.76)"/><path class="cls-6" d="M191.19,362.53a2,2,0,1,0,2,2A2,2,0,0,0,191.19,362.53Z" transform="translate(4.18 28.76)"/><circle class="cls-6" cx="195.36" cy="385.9" r="1.98"/><circle class="cls-6" cx="195.36" cy="378.53" r="1.98"/><circle class="cls-6" cx="195.36" cy="371.17" r="1.98"/><circle class="cls-6" cx="189.55" cy="389.58" r="1.98"/><circle class="cls-6" cx="189.55" cy="382.21" r="1.98"/><circle class="cls-6" cx="189.55" cy="374.85" r="1.98"/><path class="cls-6" d="M185.38,336.75a2,2,0,1,0,2,2A2,2,0,0,0,185.38,336.75Z" transform="translate(4.18 28.76)"/><path class="cls-6" d="M180.11,362.53a2,2,0,1,0,2,2A2,2,0,0,0,180.11,362.53Z" transform="translate(4.18 28.76)"/><circle class="cls-6" cx="184.28" cy="385.9" r="1.98"/><circle class="cls-6" cx="184.28" cy="378.53" r="1.98"/><circle class="cls-6" cx="184.28" cy="371.17" r="1.98"/><circle class="cls-6" cx="178.48" cy="389.58" r="1.98"/><circle class="cls-6" cx="178.48" cy="382.21" r="1.98"/><circle class="cls-6" cx="178.48" cy="374.85" r="1.98"/><path class="cls-6" d="M174.3,336.75a2,2,0,1,0,2,2A2,2,0,0,0,174.3,336.75Z" transform="translate(4.18 28.76)"/><circle class="cls-6" cx="173.21" cy="393.26" r="1.98"/><circle class="cls-6" cx="173.21" cy="385.9" r="1.98"/><circle class="cls-6" cx="173.21" cy="378.53" r="1.98"/><circle class="cls-6" cx="173.21" cy="371.17" r="1.98"/><circle class="cls-6" cx="167.4" cy="389.58" r="1.98"/><circle class="cls-6" cx="167.4" cy="382.21" r="1.98"/><circle class="cls-6" cx="167.4" cy="374.85" r="1.98"/><path class="cls-6" d="M163.22,336.75a2,2,0,1,0,2,2A2,2,0,0,0,163.22,336.75Z" transform="translate(4.18 28.76)"/></g><polygon class="cls-8" points="57.33 240.79 53.12 245 48.91 240.79 44.01 245.69 48.22 249.9 44.01 254.11 48.91 259.01 53.12 254.8 57.33 259.01 62.23 254.11 58.02 249.9 62.23 245.69 57.33 240.79"/><polygon class="cls-8" points="227.22 63.36 223.01 67.57 218.8 63.36 213.9 68.26 218.11 72.47 213.9 76.68 218.8 81.58 223.01 77.37 227.22 81.58 232.12 76.68 227.91 72.47 232.12 68.26 227.22 63.36"/><g class="cls-7"><g class="cls-9"><line class="cls-10" x1="51.2" y1="110.51" x2="120.55" y2="307.37"/><line class="cls-10" x1="56.41" y1="107.26" x2="125.76" y2="304.13"/><line class="cls-10" x1="62.69" y1="106.87" x2="132.04" y2="303.74"/><line class="cls-10" x1="67.9" y1="103.63" x2="137.25" y2="300.49"/><line class="cls-10" x1="74.18" y1="103.24" x2="143.53" y2="300.1"/><line class="cls-10" x1="79.39" y1="99.99" x2="148.74" y2="296.86"/><line class="cls-10" x1="85.67" y1="99.6" x2="155.02" y2="296.47"/><line class="cls-10" x1="90.88" y1="96.36" x2="160.23" y2="293.22"/><line class="cls-10" x1="97.16" y1="95.97" x2="166.51" y2="292.83"/><line class="cls-10" x1="102.37" y1="92.72" x2="171.72" y2="289.59"/><line class="cls-10" x1="108.65" y1="92.33" x2="178" y2="289.2"/><line class="cls-10" x1="113.86" y1="89.09" x2="183.21" y2="285.95"/><line class="cls-10" x1="120.14" y1="88.7" x2="189.49" y2="285.56"/><line class="cls-10" x1="125.35" y1="85.46" x2="194.7" y2="282.32"/><line class="cls-10" x1="131.63" y1="85.07" x2="200.98" y2="281.93"/><line class="cls-10" x1="136.84" y1="81.82" x2="206.19" y2="278.69"/><line class="cls-10" x1="143.12" y1="81.43" x2="212.47" y2="278.29"/><line class="cls-10" x1="148.33" y1="78.19" x2="217.67" y2="275.05"/><line class="cls-10" x1="154.61" y1="77.8" x2="223.95" y2="274.66"/><line class="cls-10" x1="159.81" y1="74.55" x2="229.16" y2="271.42"/><line class="cls-10" x1="166.09" y1="74.16" x2="235.44" y2="271.03"/><line class="cls-10" x1="171.3" y1="70.92" x2="240.65" y2="267.78"/><line class="cls-10" x1="177.58" y1="70.53" x2="246.93" y2="267.39"/><line class="cls-10" x1="182.79" y1="67.28" x2="252.14" y2="264.15"/><line class="cls-10" x1="189.07" y1="66.89" x2="258.42" y2="263.76"/><line class="cls-10" x1="194.28" y1="63.65" x2="263.63" y2="260.51"/><line class="cls-10" x1="200.56" y1="63.26" x2="269.91" y2="260.12"/><line class="cls-10" x1="205.77" y1="60.02" x2="275.12" y2="256.88"/><line class="cls-10" x1="212.05" y1="59.62" x2="281.4" y2="256.49"/><line class="cls-10" x1="217.26" y1="56.38" x2="286.61" y2="253.24"/><line class="cls-10" x1="223.54" y1="55.99" x2="292.89" y2="252.85"/><line class="cls-10" x1="228.75" y1="52.75" x2="298.1" y2="249.61"/></g></g><path class="cls-11" d="M196.23,200.63,79.94,184.5A20.76,20.76,0,0,1,63,157.59L92,67.26A20.77,20.77,0,0,1,114.65,53l84,11.64a20.78,20.78,0,0,1,17.9,19.84l3.32,94.82A20.76,20.76,0,0,1,196.23,200.63Z" transform="translate(4.18 28.76)"/><path class="cls-4" d="M250.92,183.21H179.53c-5.15,0-9.33-4.55-9.33-10.16h0c0-5.62,4.18-10.17,9.33-10.17h71.39c5.16,0,9.34,4.55,9.34,10.17h0C260.26,178.66,256.08,183.21,250.92,183.21Z" transform="translate(4.18 28.76)"/><path class="cls-4" d="M114.2,77.74H64.52A6.79,6.79,0,0,1,57.74,71h0a6.79,6.79,0,0,1,6.78-6.78H114.2A6.78,6.78,0,0,1,121,71h0A6.78,6.78,0,0,1,114.2,77.74Z" transform="translate(4.18 28.76)"/><path class="cls-12" d="M124.78,114.34c.38,8.75,4.13,29.45,7.88,37.54,2.11,4.68,6.41,7.34,10.38,6.58,4.72-.92,7.71-6.47,8-14.78s5.49-14.66,5.71-14.94l.17-.17a25.93,25.93,0,0,0,5.48-26.46c-4.18-11.46-12-15.38-18.69-15.38a17,17,0,0,0-3.8.44c-8.75,2-16.79,11.19-15,26.94a.44.44,0,0,0-.06.23Zm13.48,26.95a4.83,4.83,0,0,0,2.82.92c.11-.05.38-.38.49-1.36a11.84,11.84,0,0,0-.16-3.37c-.27-2.17-.6-4.67.7-7.11a15.84,15.84,0,0,1,2.33-3c1.2-1.3,2.45-2.66,2.5-3.91.11-2.34-1.52-5.33-3-5.6-.55.16-1.74,1.79-2.33,2.61-1.42,1.9-2.88,3.91-5.17,4.13a4.46,4.46,0,0,1-3.59-1.42c-2.38-2.33-3.58-6.3-3.25-10.92A19.77,19.77,0,0,1,133.9,101a13.3,13.3,0,0,1,21.63,2.94,2.51,2.51,0,0,1-4.51,2.22,8.27,8.27,0,0,0-13.31-1.85c-3.47,4-4.29,12.12-1.62,15.11.43-.44,1-1.31,1.47-1.85,1.57-2.12,3.69-5.06,7.06-4.62,4.61.6,7.6,6.19,7.39,10.76-.11,3.1-2.17,5.32-3.86,7.12a11.3,11.3,0,0,0-1.63,1.95c-.54,1-.43,2.23-.16,4.13a17.15,17.15,0,0,1,.11,4.73c-.49,3.31-2.18,4.67-3.48,5.27a5.86,5.86,0,0,1-2.29.49,11,11,0,0,1-5.37-1.8,2.45,2.45,0,0,1-.65-3.47A2.56,2.56,0,0,1,138.26,141.29Z" transform="translate(4.18 28.76)"/></g><text class="cls-13" transform="translate(82.62 283.48)">Escucha acti<tspan class="cls-14" x="111.54" y="0">v</tspan><tspan x="122.24" y="0">a</tspan><tspan class="cls-15"><tspan x="-42.02" y="34">Habilidad pa</tspan><tspan class="cls-16" x="58.24" y="34">r</tspan><tspan x="64.96" y="34">a </tspan><tspan class="cls-17" x="77.72" y="34">c</tspan><tspan x="85.39" y="34">omp</tspan><tspan class="cls-16" x="121.62" y="34">r</tspan><tspan x="128.33" y="34">ender </tspan><tspan x="-33.54" y="51">al clien</tspan><tspan class="cls-18" x="22.12" y="51">t</tspan><tspan x="28.67" y="51">e sin in</tspan><tspan class="cls-19" x="84.05" y="51">t</tspan><tspan x="90.61" y="51">errumpi</tspan><tspan class="cls-20" x="155.51" y="51">r</tspan><tspan x="161.54" y="51">.</tspan></tspan></text><path class="cls-21" d="M257.09,321.91c.36-.35.25-.61-.25-.61h-1.61a6.4,6.4,0,0,1,6.39-6.39,6.22,6.22,0,0,1,4.48,1.86l2.16-2.11a9.39,9.39,0,0,0-16,6.64h-1.56c-.45,0-.6.26-.25.61l1.36,1.36,1.41,1.35a.8.8,0,0,0,1.2,0l1.36-1.35Z" transform="translate(4.18 28.76)"/><path class="cls-21" d="M272.69,320.4,271.33,319l-1.41-1.36a.91.91,0,0,0-1.2,0L267.36,319,266,320.4c-.35.3-.25.6.25.6h1.61a6.37,6.37,0,0,1-10.92,4.48l-2.11,2.16a9.52,9.52,0,0,0,6.64,2.72,9.39,9.39,0,0,0,9.41-9.36h1.56c.45,0,.55-.3.25-.6Z" transform="translate(4.18 28.76)"/></g></g></svg>