<svg xmlns="http://www.w3.org/2000/svg" xmlns:xlink="http://www.w3.org/1999/xlink" viewBox="0 0 294.18 400.35"><defs><style>.cls-1{fill:none;}.cls-2{clip-path:url(#clip-path);}.cls-3{fill:#fff;}.cls-4{opacity:0.3;}.cls-10,.cls-5{fill:#d42028;}.cls-6{fill:#0b8ea3;}.cls-7{opacity:0.4;}.cls-8{fill:#1693ae;}.cls-8,.cls-9{opacity:0.8;}.cls-9{fill:#e78025;}.cls-10{fill-rule:evenodd;}.cls-11{font-size:20px;fill:#0c8ea3;font-family:AMX-Black, AMX;font-weight:800;}.cls-12{letter-spacing:-0.03em;}.cls-13{letter-spacing:-0.02em;}.cls-14{letter-spacing:-0.01em;}.cls-15{font-size:18px;font-family:AMX-Medium, AMX;font-weight:500;fill:#000;}.cls-16{letter-spacing:-0.01em;}.cls-17{letter-spacing:-0.02em;}.cls-18{letter-spacing:-0.02em;}.cls-19{letter-spacing:-0.01em;}.cls-20{letter-spacing:-0.02em;}.cls-21{letter-spacing:0em;}.cls-22{letter-spacing:-0.01em;}.cls-23{letter-spacing:-0.11em;}</style><clipPath id="clip-path" transform="translate(4.18 28.76)"><rect class="cls-1" width="290" height="350"/></clipPath></defs><g id="Capa_2" data-name="Capa 2"><g id="Capa_1-2" data-name="Capa 1"><g class="cls-2"><rect class="cls-3" x="4.18" y="28.76" width="290" height="350"/><g class="cls-4"><path class="cls-5" d="M36.67,325.29a57.4,57.4,0,0,1,16.92,40.85c0,1.83-.09,3.65-.26,5.45H51.2a54.49,54.49,0,0,0,.27-5.45A55.71,55.71,0,0,0-4.18,310.49v-2.12A57.4,57.4,0,0,1,36.67,325.29Z" transform="translate(4.18 28.76)"/></g><g class="cls-4"><path class="cls-5" d="M30.6,366.14a35,35,0,0,1-.43,5.45H28.88a33.69,33.69,0,0,0,.44-5.45,33.53,33.53,0,0,0-33.5-33.5v-1.28A34.82,34.82,0,0,1,30.6,366.14Z" transform="translate(4.18 28.76)"/></g><g class="cls-4"><path class="cls-6" d="M251.91,25.73a52.15,52.15,0,0,1-15.39-37.15c0-1.67.07-3.32.23-5h1.94c-.16,1.63-.24,3.29-.24,5a50.66,50.66,0,0,0,50.61,50.61v1.93A52.15,52.15,0,0,1,251.91,25.73Z" transform="translate(4.18 28.76)"/></g><g class="cls-4"><path class="cls-6" d="M257.43-11.42a31.31,31.31,0,0,1,.39-5H259a30.09,30.09,0,0,0-.4,5,30.5,30.5,0,0,0,30.47,30.47v1.16A31.66,31.66,0,0,1,257.43-11.42Z" transform="translate(4.18 28.76)"/></g><g class="cls-7"><circle class="cls-6" cx="52.22" cy="1.98" r="1.98"/><circle class="cls-6" cx="44.85" cy="1.98" r="1.98"/><circle class="cls-6" cx="37.49" cy="1.98" r="1.98"/><circle class="cls-6" cx="30.12" cy="1.98" r="1.98"/><circle class="cls-6" cx="48.53" cy="7.78" r="1.98"/><circle class="cls-6" cx="41.17" cy="7.78" r="1.98"/><circle class="cls-6" cx="33.8" cy="7.78" r="1.98"/><path class="cls-6" d="M20.28-21a2,2,0,0,0,2,2,2,2,0,0,0,2-2,2,2,0,0,0-2-2A2,2,0,0,0,20.28-21Z" transform="translate(4.18 28.76)"/><path class="cls-6" d="M46.06-15.71a2,2,0,0,0,2,2,2,2,0,0,0,2-2,2,2,0,0,0-2-2A2,2,0,0,0,46.06-15.71Z" transform="translate(4.18 28.76)"/><path class="cls-6" d="M38.7-15.71a2,2,0,0,0,2,2,2,2,0,0,0,2-2,2,2,0,0,0-2-2A2,2,0,0,0,38.7-15.71Z" transform="translate(4.18 28.76)"/><path class="cls-6" d="M31.33-15.71a2,2,0,0,0,2,2,2,2,0,0,0,2-2,2,2,0,0,0-2-2A2,2,0,0,0,31.33-15.71Z" transform="translate(4.18 28.76)"/><path class="cls-6" d="M24-15.71a2,2,0,0,0,2,2,2,2,0,0,0,2-2,2,2,0,0,0-2-2A2,2,0,0,0,24-15.71Z" transform="translate(4.18 28.76)"/><circle class="cls-6" cx="48.53" cy="18.86" r="1.98"/><circle class="cls-6" cx="41.17" cy="18.86" r="1.98"/><circle class="cls-6" cx="33.8" cy="18.86" r="1.98"/><path class="cls-6" d="M20.28-9.9a2,2,0,0,0,2,2,2,2,0,0,0,2-2,2,2,0,0,0-2-2A2,2,0,0,0,20.28-9.9Z" transform="translate(4.18 28.76)"/><circle class="cls-6" cx="52.22" cy="24.13" r="1.98"/><circle class="cls-6" cx="44.85" cy="24.13" r="1.98"/><circle class="cls-6" cx="37.49" cy="24.13" r="1.98"/><circle class="cls-6" cx="30.12" cy="24.13" r="1.98"/><path class="cls-6" d="M42.38,1.18a2,2,0,1,0,2-2A2,2,0,0,0,42.38,1.18Z" transform="translate(4.18 28.76)"/><path class="cls-6" d="M35,1.18a2,2,0,1,0,2-2A2,2,0,0,0,35,1.18Z" transform="translate(4.18 28.76)"/><path class="cls-6" d="M27.65,1.18a2,2,0,1,0,2-2A2,2,0,0,0,27.65,1.18Z" transform="translate(4.18 28.76)"/><path class="cls-6" d="M20.28,1.18a2,2,0,1,0,2-2A2,2,0,0,0,20.28,1.18Z" transform="translate(4.18 28.76)"/><circle class="cls-6" cx="52.22" cy="35.21" r="1.98"/><circle class="cls-6" cx="44.85" cy="35.21" r="1.98"/><circle class="cls-6" cx="37.49" cy="35.21" r="1.98"/><circle class="cls-6" cx="30.12" cy="35.21" r="1.98"/><circle class="cls-6" cx="48.53" cy="41.02" r="1.98"/><circle class="cls-6" cx="41.17" cy="41.02" r="1.98"/><circle class="cls-6" cx="33.8" cy="41.02" r="1.98"/><path class="cls-6" d="M20.28,12.26a2,2,0,1,0,2-2A2,2,0,0,0,20.28,12.26Z" transform="translate(4.18 28.76)"/><circle class="cls-6" cx="52.22" cy="46.29" r="1.98"/><circle class="cls-6" cx="44.85" cy="46.29" r="1.98"/><circle class="cls-6" cx="37.49" cy="46.29" r="1.98"/><circle class="cls-6" cx="30.12" cy="46.29" r="1.98"/><circle class="cls-6" cx="48.53" cy="52.1" r="1.98"/><circle class="cls-6" cx="41.17" cy="52.1" r="1.98"/><circle class="cls-6" cx="33.8" cy="52.1" r="1.98"/><path class="cls-6" d="M20.28,23.34a2,2,0,1,0,2-2A2,2,0,0,0,20.28,23.34Z" transform="translate(4.18 28.76)"/></g><g class="cls-7"><path class="cls-6" d="M214,362.26a2,2,0,1,0,2,2A2,2,0,0,0,214,362.26Z" transform="translate(4.18 28.76)"/><circle class="cls-6" cx="218.17" cy="385.63" r="1.98"/><circle class="cls-6" cx="218.17" cy="378.26" r="1.98"/><circle class="cls-6" cx="218.17" cy="370.9" r="1.98"/><path class="cls-6" d="M208.19,358.57a2,2,0,1,0,2,2A2,2,0,0,0,208.19,358.57Z" transform="translate(4.18 28.76)"/><circle class="cls-6" cx="212.36" cy="381.94" r="1.98"/><circle class="cls-6" cx="212.36" cy="374.58" r="1.98"/><path class="cls-6" d="M208.19,336.48a2,2,0,1,0,2,2A2,2,0,0,0,208.19,336.48Z" transform="translate(4.18 28.76)"/><path class="cls-6" d="M202.92,362.26a2,2,0,1,0,2,2A2,2,0,0,0,202.92,362.26Z" transform="translate(4.18 28.76)"/><circle class="cls-6" cx="207.09" cy="385.63" r="1.98"/><circle class="cls-6" cx="207.09" cy="378.26" r="1.98"/><circle class="cls-6" cx="207.09" cy="370.9" r="1.98"/><circle class="cls-6" cx="201.28" cy="389.31" r="1.98"/><circle class="cls-6" cx="201.28" cy="381.94" r="1.98"/><circle class="cls-6" cx="201.28" cy="374.58" r="1.98"/><path class="cls-6" d="M197.11,336.48a2,2,0,1,0,2,2A2,2,0,0,0,197.11,336.48Z" transform="translate(4.18 28.76)"/><path class="cls-6" d="M191.84,362.26a2,2,0,1,0,2,2A2,2,0,0,0,191.84,362.26Z" transform="translate(4.18 28.76)"/><circle class="cls-6" cx="196.01" cy="385.63" r="1.98"/><circle class="cls-6" cx="196.01" cy="378.26" r="1.98"/><circle class="cls-6" cx="196.01" cy="370.9" r="1.98"/><circle class="cls-6" cx="190.2" cy="389.31" r="1.98"/><circle class="cls-6" cx="190.2" cy="381.94" r="1.98"/><circle class="cls-6" cx="190.2" cy="374.58" r="1.98"/><path class="cls-6" d="M186,336.48a2,2,0,1,0,2,2A2,2,0,0,0,186,336.48Z" transform="translate(4.18 28.76)"/><path class="cls-6" d="M180.76,362.26a2,2,0,1,0,2,2A2,2,0,0,0,180.76,362.26Z" transform="translate(4.18 28.76)"/><circle class="cls-6" cx="184.93" cy="385.63" r="1.98"/><circle class="cls-6" cx="184.93" cy="378.26" r="1.98"/><circle class="cls-6" cx="184.93" cy="370.9" r="1.98"/><circle class="cls-6" cx="179.13" cy="389.31" r="1.98"/><circle class="cls-6" cx="179.13" cy="381.94" r="1.98"/><circle class="cls-6" cx="179.13" cy="374.58" r="1.98"/><path class="cls-6" d="M175,336.48a2,2,0,1,0,2,2A2,2,0,0,0,175,336.48Z" transform="translate(4.18 28.76)"/><circle class="cls-6" cx="173.86" cy="392.99" r="1.98"/><circle class="cls-6" cx="173.86" cy="385.63" r="1.98"/><circle class="cls-6" cx="173.86" cy="378.26" r="1.98"/><circle class="cls-6" cx="173.86" cy="370.9" r="1.98"/><circle class="cls-6" cx="168.05" cy="389.31" r="1.98"/><circle class="cls-6" cx="168.05" cy="381.94" r="1.98"/><circle class="cls-6" cx="168.05" cy="374.58" r="1.98"/><path class="cls-6" d="M163.87,336.48a2,2,0,1,0,2,2A2,2,0,0,0,163.87,336.48Z" transform="translate(4.18 28.76)"/></g><polygon class="cls-8" points="56.4 304.32 52.19 308.53 47.98 304.32 43.08 309.22 47.29 313.43 43.08 317.64 47.98 322.54 52.19 318.33 56.4 322.54 61.3 317.64 57.09 313.43 61.3 309.22 56.4 304.32"/><polygon class="cls-9" points="220.79 79.19 216.58 83.4 212.37 79.19 207.47 84.09 211.68 88.3 207.47 92.51 212.37 97.41 216.58 93.2 220.79 97.41 225.69 92.51 221.48 88.3 225.69 84.09 220.79 79.19"/><path class="cls-10" d="M254.25,321.05c.35-.35.25-.61-.26-.61h-1.61a6.4,6.4,0,0,1,6.4-6.39,6.18,6.18,0,0,1,4.47,1.86l2.17-2.11a9.39,9.39,0,0,0-16.05,6.64H247.8c-.45,0-.6.26-.25.61l1.36,1.35,1.41,1.36a.81.81,0,0,0,1.21,0l1.36-1.36Z" transform="translate(4.18 28.76)"/><path class="cls-10" d="M269.85,319.54l-1.36-1.41-1.41-1.36a.93.93,0,0,0-1.21,0l-1.36,1.36-1.36,1.41c-.35.3-.25.6.25.6H265a6.37,6.37,0,0,1-10.92,4.48L252,326.78a9.58,9.58,0,0,0,6.64,2.72,9.38,9.38,0,0,0,9.41-9.36h1.57c.45,0,.55-.3.25-.6Z" transform="translate(4.18 28.76)"/></g><text class="cls-11" transform="translate(75.53 148.03)">¿<tspan class="cls-12" x="9.44" y="0">P</tspan><tspan x="21.38" y="0">a</tspan><tspan class="cls-13" x="32.26" y="0">r</tspan><tspan x="40.54" y="0">a qué sir</tspan><tspan class="cls-14" x="118.18" y="0">v</tspan><tspan x="129.06" y="0">e?</tspan><tspan class="cls-15"><tspan x="-52.56" y="42.6">•</tspan><tspan class="cls-16" x="-45.56" y="42.6">M</tspan><tspan x="-28.3" y="42.6">ejo</tspan><tspan class="cls-17" x="-3.8" y="42.6">r</tspan><tspan x="2.91" y="42.6">a la </tspan><tspan class="cls-18" x="33.42" y="42.6">c</tspan><tspan x="41.09" y="42.6">onfianza y empatía.</tspan><tspan x="-52.56" y="63.6">•</tspan><tspan class="cls-16" x="-45.56" y="63.6">A</tspan><tspan class="cls-18" x="-34.69" y="63.6">c</tspan><tspan x="-27.02" y="63.6">ción cla</tspan><tspan class="cls-19" x="32.36" y="63.6">v</tspan><tspan x="41.18" y="63.6">e: pa</tspan><tspan class="cls-17" x="78.92" y="63.6">r</tspan><tspan x="85.64" y="63.6">af</tspan><tspan class="cls-20" x="101.3" y="63.6">r</tspan><tspan class="cls-21" x="108.01" y="63.6">asear lo </tspan><tspan x="-52.56" y="84.6">dicho por el clien</tspan><tspan class="cls-22" x="81.97" y="84.6">t</tspan><tspan x="88.52" y="84.6">e.</tspan><tspan x="-52.56" y="105.6">•Ej.: “Entiendo que el p</tspan><tspan class="cls-17" x="129.18" y="105.6">r</tspan><tspan x="135.89" y="105.6">oblema </tspan><tspan x="-52.56" y="126.6">es la </tspan><tspan class="cls-19" x="-13.92" y="126.6">v</tspan><tspan x="-5.1" y="126.6">elocidad baja</tspan><tspan class="cls-23" x="99.98" y="126.6">.</tspan><tspan x="103.19" y="126.6">”</tspan></tspan></text></g></g></svg>